<svg width="512" height="512" viewBox="0 0 512 512" fill="none" xmlns="http://www.w3.org/2000/svg">
  <rect width="512" height="512" rx="100" fill="url(#paint0_linear)"/>
  <path d="M256 420C256 420 120 340 120 220C120 160 160 120 210 120C235 120 245 130 256 145C267 130 277 120 302 120C352 120 392 160 392 220C392 340 256 420 256 420Z" stroke="white" stroke-width="24" stroke-linecap="round"/>
  <circle cx="210" cy="120" r="16" fill="white"/>
  <circle cx="302" cy="120" r="16" fill="white"/>
  <circle cx="256" cy="420" r="28" fill="white"/>
  <path d="M256 220L262 245L287 251L262 257L256 282L250 257L225 251L250 245L256 220Z" fill="white"/>
  <defs>
    <linearGradient id="paint0_linear" x1="0" y1="0" x2="512" y2="512" gradientUnits="userSpaceOnUse">
      <stop stop-color="#10B981"/>
      <stop offset="1" stop-color="#059669"/>
    </linearGradient>
  </defs>
</svg>
